<?xml version="1.0" standalone="no"?>
<!DOCTYPE svg PUBLIC "-//W3C//DTD SVG 20010904//EN"
 "http://www.w3.org/TR/2001/REC-SVG-20010904/DTD/svg10.dtd">
<svg version="1.0" xmlns="http://www.w3.org/2000/svg"
 width="1080.000000pt" height="1080.000000pt" viewBox="0 0 1080.000000 1080.000000"
 preserveAspectRatio="xMidYMid meet">

<g transform="translate(0.000000,1080.000000) scale(0.100000,-0.100000)"
fill="#000000" stroke="none">
<path d="M3069 9112 c-165 -2 -230 -6 -237 -15 -8 -9 353 -12 1731 -13 1812 0
1831 -1 1878 -40 8 -8 25 -14 36 -14 11 0 26 -7 33 -15 7 -8 22 -15 33 -15 11
0 27 -7 36 -15 9 -8 57 -45 106 -81 50 -37 102 -80 117 -95 15 -16 29 -29 31
-29 3 0 68 -63 146 -141 77 -77 146 -139 152 -137 12 4 -95 118 -111 118 -5 0
-10 5 -10 10 0 12 -36 50 -47 50 -5 0 -18 15 -30 33 -12 17 -32 39 -44 47 -12
8 -43 36 -69 63 -26 26 -52 47 -59 47 -6 0 -11 4 -11 8 0 10 -96 82 -110 82
-6 0 -13 7 -16 15 -4 8 -15 15 -25 15 -10 0 -19 4 -19 9 0 5 -21 19 -47 31
-27 12 -61 28 -78 35 -16 8 -48 17 -70 21 -22 4 -45 10 -51 15 -10 8 -2747 17
-3265 11z"/>
<path d="M2730 9075 c-10 -13 -9 -15 11 -15 37 0 69 11 63 21 -9 15 -61 10
-74 -6z"/>
<path d="M2628 9033 c-16 -8 -28 -18 -28 -22 0 -5 -10 -11 -23 -15 -13 -3 -29
-17 -37 -31 -7 -14 -17 -25 -21 -25 -3 0 -23 -17 -43 -37 -34 -36 -48 -73 -26
-73 6 0 10 4 10 9 0 5 16 26 35 45 19 20 35 40 36 44 1 14 129 102 148 102 11
0 23 5 26 10 9 15 -46 10 -77 -7z"/>
<path d="M2412 8798 c-6 -14 -15 -29 -20 -32 -5 -3 -13 -27 -17 -53 -4 -27
-12 -54 -18 -62 -9 -11 -12 -748 -12 -2970 0 -2799 1 -2957 17 -2981 10 -13
18 -34 18 -47 0 -12 5 -25 10 -28 6 -4 10 10 10 35 0 27 -5 43 -15 46 -13 5
-15 346 -15 2979 0 2630 2 2974 15 2985 9 7 15 29 15 51 0 24 6 41 16 47 10 5
14 18 12 33 l-4 24 -12 -27z"/>
<path d="M2997 8570 c-29 -12 -67 -43 -67 -55 0 -7 -7 -18 -15 -25 -13 -11
-15 -355 -15 -2794 0 -2642 1 -2782 18 -2808 9 -14 29 -36 44 -47 l26 -21
2368 0 c2101 0 2369 2 2377 15 4 8 15 15 22 15 8 0 15 6 15 14 0 7 7 19 15 26
13 11 15 251 15 2051 0 2034 0 2038 -20 2072 -40 68 -35 67 -555 67 -364 0
-466 -3 -462 -13 3 -9 112 -13 468 -15 329 -1 471 -5 486 -14 58 -30 54 125
55 -2094 l1 -2036 -32 -32 -31 -31 -2356 -3 -2356 -2 -34 37 -34 37 0 2784 0
2783 36 35 37 34 1552 0 1553 0 31 -35 31 -36 0 -400 c0 -333 3 -406 15 -436
8 -19 15 -48 15 -64 0 -15 7 -34 15 -43 8 -8 15 -24 15 -35 0 -11 7 -26 15
-35 8 -8 15 -19 15 -24 0 -5 7 -15 15 -22 13 -10 15 -9 15 9 0 12 -7 24 -15
27 -8 4 -15 16 -15 29 0 12 -7 28 -15 35 -8 7 -15 23 -15 36 0 13 -7 43 -15
68 -12 36 -16 124 -19 461 l-4 417 -38 34 c-35 33 -39 34 -123 35 -603 3
-3025 3 -3034 -1z"/>
<path d="M7140 8483 c0 -10 80 -83 90 -83 6 0 10 -7 10 -15 0 -8 4 -15 9 -15
5 0 35 -27 67 -60 33 -33 65 -60 72 -60 6 0 12 -5 12 -11 0 -13 107 -119 121
-119 5 0 9 -4 9 -10 0 -9 36 -50 44 -50 2 0 25 -21 50 -46 26 -25 51 -44 57
-42 6 2 -7 22 -30 43 -23 22 -70 68 -105 103 -35 34 -69 62 -75 62 -6 0 -11 4
-11 10 0 9 -37 47 -209 213 -82 78 -111 100 -111 80z"/>
<path d="M7690 7953 c0 -3 42 -46 93 -95 273 -263 415 -407 421 -426 4 -11 13
-23 21 -26 8 -3 15 -15 15 -26 0 -11 7 -23 15 -26 8 -4 15 -16 15 -29 0 -12 6
-28 14 -35 8 -6 16 -25 18 -42 4 -39 28 -51 28 -14 0 26 -34 101 -57 124 -7 7
-13 21 -13 31 0 10 -22 42 -49 72 -28 30 -65 71 -83 91 -18 20 -39 37 -45 37
-7 1 -13 6 -13 11 0 6 -32 41 -71 78 -39 37 -99 95 -135 130 -35 34 -68 62
-74 62 -5 0 -10 4 -10 10 0 5 -16 25 -35 45 -33 33 -55 44 -55 28z"/>
<path d="M6300 7386 c0 -8 5 -18 10 -21 6 -3 10 3 10 14 0 12 -4 21 -10 21 -5
0 -10 -6 -10 -14z"/>
<path d="M6330 7346 c0 -8 7 -21 15 -30 8 -8 15 -19 15 -24 0 -5 11 -17 25
-26 13 -9 32 -24 42 -34 10 -10 35 -29 56 -41 31 -19 37 -20 37 -7 0 9 -4 16
-10 16 -13 0 -37 21 -116 98 -36 35 -64 57 -64 48z"/>
<path d="M8341 7195 c-1 -5 -2 -1015 -4 -2244 -2 -1778 -5 -2235 -15 -2239 -6
-2 -15 -21 -18 -42 -4 -21 -13 -41 -20 -44 -8 -3 -14 -12 -14 -21 0 -9 -10
-30 -22 -47 -28 -38 -116 -128 -126 -128 -4 0 -15 -8 -24 -17 -28 -31 -61 -53
-80 -53 -10 0 -18 -4 -18 -10 0 -16 50 -12 56 5 4 8 14 15 24 15 10 0 20 7 24
15 3 8 12 15 20 15 23 0 141 136 175 201 17 33 31 70 31 84 0 14 4 25 9 25 5
0 11 10 15 23 10 38 7 4423 -3 4449 -6 12 -10 19 -10 13z"/>
<path d="M6530 7161 c0 -9 24 -21 41 -21 5 0 9 7 9 15 0 9 -9 15 -25 15 -14 0
-25 -4 -25 -9z"/>
<path d="M6590 7132 c0 -4 21 -17 48 -30 47 -22 112 -30 112 -13 0 12 -26 21
-62 21 -16 0 -36 7 -44 15 -16 16 -54 21 -54 7z"/>
<path d="M5755 6510 c-3 -5 -19 -10 -34 -10 -15 0 -36 -7 -47 -15 -18 -14 -17
-14 12 -15 16 0 39 7 50 15 10 8 27 15 37 15 20 0 23 20 3 20 -8 0 -18 -4 -21
-10z"/>
<path d="M5830 6492 c0 -11 33 -22 66 -22 12 0 24 -7 28 -15 6 -16 46 -21 46
-6 0 5 -10 13 -22 17 -13 4 -25 10 -28 15 -9 13 -90 23 -90 11z"/>
<path d="M5598 6432 c-21 -21 -38 -44 -38 -51 0 -8 15 2 33 21 17 19 40 37 50
41 10 4 15 11 12 17 -10 16 -17 12 -57 -28z"/>
<path d="M5980 6429 c0 -6 28 -39 63 -71 260 -248 847 -836 847 -848 0 -9 7
-25 15 -36 9 -11 14 -42 15 -76 0 -32 5 -58 10 -58 13 0 13 117 1 125 -5 3
-12 18 -15 33 -7 30 -66 103 -135 167 -79 73 -221 219 -221 227 0 4 -5 8 -10
8 -6 0 -75 64 -154 143 -80 78 -163 160 -185 181 -23 22 -41 43 -41 48 0 4 -7
8 -15 8 -8 0 -15 5 -15 10 0 10 -48 59 -110 113 -43 37 -50 40 -50 26z"/>
<path d="M5524 6345 c-7 -29 -1 -41 15 -30 14 8 14 55 1 55 -5 0 -12 -11 -16
-25z"/>
<path d="M5499 6263 c-2 -48 3 -78 12 -81 5 -2 9 -9 9 -15 0 -37 65 -113 253
-298 115 -113 206 -208 201 -211 -5 -3 -285 -6 -622 -6 -337 0 -622 -4 -635
-9 -12 -4 282 -10 653 -13 371 -3 679 -2 683 1 4 3 -4 14 -18 23 -14 9 -84 74
-154 144 -71 70 -166 161 -210 202 -44 41 -83 83 -87 93 -3 9 -12 17 -20 17
-8 0 -14 10 -14 24 0 13 -7 29 -15 36 -10 8 -15 31 -15 66 0 54 -19 78 -21 27z"/>
<path d="M4601 5618 c-22 -6 -30 -12 -23 -17 18 -11 95 2 100 17 4 14 -27 15
-77 0z"/>
<path d="M4495 5579 c-4 -6 -5 -12 -3 -15 8 -7 68 8 68 17 0 13 -58 11 -65 -2z"/>
<path d="M4416 5545 c-8 -8 -22 -15 -31 -15 -8 0 -18 -7 -21 -15 -4 -8 -14
-15 -23 -15 -9 0 -24 -8 -33 -17 -25 -27 -46 -43 -56 -43 -4 0 -23 -16 -42
-35 -19 -19 -38 -35 -42 -35 -22 0 -188 -194 -188 -219 0 -6 -5 -11 -10 -11
-6 0 -15 -10 -20 -22 -6 -13 -19 -36 -30 -53 -19 -28 -32 -55 -51 -100 -4 -11
-17 -41 -28 -67 -12 -26 -21 -63 -21 -82 0 -19 -6 -36 -12 -38 -10 -4 -14 -88
-16 -369 -3 -351 -2 -365 18 -406 23 -46 107 -133 129 -133 8 0 19 -7 26 -16
20 -27 169 -24 229 5 25 13 46 27 46 32 0 5 6 9 13 9 6 1 29 21 50 45 28 33
37 52 35 72 l-3 28 -17 -30 c-10 -16 -22 -42 -29 -57 -6 -16 -14 -28 -18 -28
-5 0 -18 -9 -31 -20 -13 -11 -29 -20 -35 -20 -7 0 -15 -7 -19 -15 -4 -12 -26
-15 -104 -15 -76 0 -102 4 -112 15 -7 8 -18 15 -24 15 -15 1 -66 46 -66 60 0
5 -7 10 -15 10 -8 0 -15 8 -15 17 0 9 -7 24 -16 34 -14 15 -16 62 -15 380 1
199 5 367 10 373 5 6 12 35 16 65 4 30 14 61 21 69 8 7 14 24 14 36 0 13 7 29
15 36 8 7 15 23 15 36 0 13 5 24 11 24 5 0 15 13 20 29 6 16 17 32 25 35 8 3
14 14 14 24 0 11 7 25 15 32 8 7 15 19 15 26 0 8 7 14 15 14 8 0 15 6 15 13 0
15 162 177 177 177 6 0 13 7 17 15 3 8 12 15 21 15 8 0 15 6 15 14 0 7 8 17
18 20 34 13 72 37 72 47 0 5 7 9 16 9 9 0 27 9 41 20 14 11 34 20 44 20 11 0
19 5 19 10 0 15 -47 12 -64 -5z"/>
<path d="M6898 5314 c-5 -4 -8 -14 -8 -22 0 -12 -619 -636 -868 -876 -40 -37
-72 -72 -72 -77 0 -5 -5 -9 -12 -9 -6 0 -20 -8 -30 -17 -27 -24 -217 -22 -230
2 -5 8 -18 15 -29 15 -11 0 -22 7 -25 15 -4 8 -12 15 -20 15 -29 0 -12 -20 45
-54 55 -34 64 -36 146 -36 l87 0 56 44 c71 55 202 182 202 196 0 5 5 10 12 10
13 0 88 76 88 90 0 6 4 10 10 10 12 0 80 68 80 80 0 6 4 10 10 10 9 0 526 513
558 554 14 17 13 64 0 50z"/>
<path d="M5951 5119 c-20 -12 -37 -16 -45 -11 -6 5 -45 8 -86 7 -137 -4 -146
-5 -130 -15 9 -5 63 -8 120 -7 74 1 104 -1 107 -10 4 -11 -290 -307 -338 -341
-16 -11 -28 -52 -15 -52 2 0 86 81 187 181 101 99 197 193 214 208 16 15 36
35 44 44 12 15 11 17 -5 16 -11 0 -34 -9 -53 -20z"/>
<path d="M4805 5110 c-38 -3 -79 -10 -90 -17 -11 -6 -27 -14 -35 -17 -8 -4
-28 -15 -45 -26 -16 -11 -39 -24 -50 -29 -20 -9 -123 -115 -157 -162 -10 -13
-18 -31 -18 -40 0 -9 -7 -22 -15 -29 -16 -13 -21 -80 -6 -80 12 0 21 26 21 60
0 16 7 30 15 34 8 3 15 14 15 24 0 11 7 25 15 32 8 7 15 19 15 26 0 8 4 14 9
14 5 0 36 26 68 58 32 32 70 62 86 65 15 4 27 12 27 17 0 6 8 10 18 10 10 0
27 7 39 15 21 14 72 23 188 30 33 2 64 4 69 4 5 1 6 4 2 9 -9 8 -72 9 -171 2z"/>
<path d="M5013 5108 c-2 -5 17 -9 44 -9 26 -1 80 -3 118 -4 39 -2 77 1 85 6
18 10 24 10 -128 12 -63 1 -116 -1 -119 -5z"/>
<path d="M5460 5110 c-96 -3 -170 -7 -165 -9 17 -6 359 -9 369 -3 8 4 -14 24
-24 20 -3 -1 -84 -5 -180 -8z"/>
<path d="M4357 4683 c-4 -3 -7 -146 -7 -317 0 -193 4 -305 10 -295 10 17 19
619 9 619 -3 0 -9 -3 -12 -7z"/>
<path d="M5525 4650 c-4 -16 -11 -32 -16 -35 -12 -8 -12 -135 1 -135 5 0 12
-15 15 -32 7 -38 39 -82 56 -76 6 2 2 14 -10 30 -12 14 -21 32 -21 40 0 8 -7
23 -15 34 -20 26 -20 137 0 154 16 14 21 50 6 50 -5 0 -12 -13 -16 -30z"/>
<path d="M2410 2597 c0 -16 7 -30 15 -33 8 -4 15 -13 15 -20 0 -8 7 -17 15
-20 8 -4 15 -12 15 -19 0 -7 30 -41 66 -74 63 -57 94 -74 94 -51 0 6 -4 10 -8
10 -5 0 -42 34 -83 74 -85 86 -99 102 -99 114 0 4 -7 17 -15 28 -14 18 -14 18
-15 -9z"/>
<path d="M2645 2350 c3 -5 14 -10 24 -10 10 0 24 -6 30 -14 7 -8 35 -17 64
-21 29 -4 58 -12 65 -18 17 -13 5004 -14 5024 0 7 4 -1122 10 -2509 13 -1999
4 -2525 8 -2535 18 -6 6 -26 12 -42 12 -17 0 -44 7 -60 15 -32 17 -70 20 -61
5z"/>
<path d="M7896 2321 c-8 -13 14 -19 52 -14 50 8 49 23 -2 23 -25 0 -47 -4 -50
-9z"/>
</g>
</svg>
